<?xml version="1.0" encoding="UTF-8"?>
<svg id="Capa_4" data-name="Capa 4" xmlns="http://www.w3.org/2000/svg" viewBox="0 0 1024 1024">
  
  <path fill="#dfd2f0" d="M512,892.99c-7.83,0-15.66-1.84-22.83-5.52-31.61-16.22-64.3-31.04-97.16-44.02-45.23-17.88-80.43-28.28-101.45-34.5-23.6-6.98-46.83-13.15-69.07-18.33-24.65-5.75-48.48-10.42-67.12-13.17-7.72-1.14-15.58-2.17-23.36-3.05-3.18-.36-6.32-1.03-9.38-1.99l-3.6-1.13c-20.82-6.56-34.98-25.86-34.98-47.69V232.09c0-13.52,5.48-26.46,15.18-35.88,7.58-7.36,17.25-12.07,27.56-13.59v-1.6c0-16.36,8.01-31.69,21.44-41.04,8.5-5.92,18.49-8.96,28.57-8.96,2.29,0,4.59.16,6.87.47,33.04,4.18,66.03,10.48,98.05,18.72,42.83,11.02,73.89,22.84,90.58,29.19,16.26,6.2,41,16.2,66.8,28.73.04.02.07.03.11.05,13.27,6.48,33.34,16.28,57.98,31.73,5.32,3.33,10.6,6.77,15.81,10.29,5.22-3.53,10.51-6.96,15.84-10.3,24.62-15.44,44.68-25.24,57.96-31.72.04-.02.07-.03.1-.05,25.81-12.53,50.55-22.53,66.75-28.71,16.74-6.37,47.8-18.18,90.64-29.21,32.01-8.24,64.99-14.54,98.03-18.72,2.29-.32,4.59-.48,6.88-.48,10.08,0,20.07,3.05,28.57,8.96,13.43,9.35,21.44,24.68,21.44,41.04v1.6c10.31,1.51,19.97,6.23,27.56,13.59,9.7,9.42,15.18,22.36,15.18,35.88v491.49c0,21.83-14.16,41.13-34.97,47.69l-3.61,1.14c-3.05.96-6.19,1.63-9.37,1.99-7.79.89-15.65,1.91-23.36,3.05-18.63,2.75-42.47,7.43-67.12,13.17-22.23,5.18-45.47,11.35-69.07,18.33-21.03,6.22-56.23,16.63-101.46,34.5-32.86,12.99-65.55,27.8-97.16,44.02-7.17,3.68-15,5.52-22.83,5.52Z"/>
  <path fill="#652b99" d="M847.91,233.94c0-17.76,0-35.53,0-53.29h0s0,0,0,0h0s0,0-.01,0c-36.39,4.57-67.56,11.2-92.44,17.61-39.67,10.21-68.88,21.26-85.28,27.5-33.34,12.72-56.81,24.1-62.75,26.98-13.74,6.71-31.37,15.38-53.36,29.16-17.61,11.03-31.87,21.49-42.38,29.71h0s0,0,0,0c0,0,0,0,0,0h0c-10.51-8.22-24.77-18.68-42.38-29.71-21.98-13.79-39.62-22.46-53.36-29.16-5.94-2.88-29.41-14.26-62.75-26.98-16.39-6.23-45.61-17.29-85.28-27.5-24.89-6.41-56.06-13.04-92.44-17.61,0,0,0,0-.01,0h0s0,0,0,0h0c0,17.76,0,35.53,0,53.29-17.12-1.27-31.71-1.89-42.74-2.22v491.49c1.2.38,2.4.76,3.61,1.14,6.7.76,15.2,1.82,25.01,3.27,7.08,1.04,32.13,4.84,71.17,13.94,12.86,3,38.47,9.19,71.9,19.08,22.89,6.77,59.31,17.64,105.65,35.95,28.73,11.35,63.29,26.37,101.62,46.04,38.33-19.67,72.89-34.69,101.62-46.04,46.34-18.31,82.76-29.18,105.65-35.95,33.43-9.89,59.05-16.08,71.9-19.08,39.04-9.1,64.08-12.9,71.17-13.94,9.81-1.45,18.3-2.5,25.01-3.27,1.2-.38,2.41-.76,3.61-1.14V231.72c-11.02.33-25.62.96-42.74,2.22Z"/>
  <path fill="#ac7dda" d="M512.27,883.99c-4.25,0-8.52-.68-12.65-2.05-3.1-1.03-6.08-2.45-8.88-4.24,0,0-.01,0-.01,0-1.78-1.14-66.37-34.75-94.77-45.97-45.63-18.03-81.1-28.52-102.3-34.79-23.78-7.03-47.21-13.25-69.63-18.48-24.91-5.81-49.03-10.54-67.93-13.32-7.83-1.16-15.8-2.2-23.69-3.09-2.54-.29-5.05-.82-7.5-1.59l-3.61-1.14c-16.65-5.25-27.98-20.69-27.98-38.15V229.65c0-10.82,4.38-21.17,12.14-28.71,7.47-7.25,17.47-11.29,27.86-11.29.4,0,.8,0,1.2.02.51.02,1.02.03,1.54.05v-7.7c0-13.67,6.98-26.4,18.51-33.74,6.52-4.15,13.99-6.26,21.49-6.26,1.84,0,3.69.13,5.52.38,32.66,4.13,65.26,10.35,96.91,18.5,42.28,10.88,73.01,22.57,89.52,28.85,16.06,6.13,40.52,16.01,65.99,28.38,13.17,6.43,32.94,16.08,57.14,31.26,7.12,4.46,14.19,9.12,21.13,13.93,6.94-4.81,14.01-9.48,21.15-13.95,24.18-15.16,43.95-24.82,57.04-31.21,25.56-12.41,50.01-22.29,66.04-28.4,16.55-6.29,47.28-17.98,89.57-28.86,31.64-8.15,64.23-14.37,96.88-18.49,1.84-.26,3.69-.39,5.54-.39,7.41,0,14.79,2.06,21.27,6.12,11.66,7.32,18.74,20.11,18.74,33.88v7.7c.51-.02,1.02-.03,1.54-.05.4-.01.8-.02,1.2-.02,10.38,0,20.38,4.04,27.86,11.29,7.76,7.53,12.14,17.89,12.14,28.71v491.49c0,17.46-11.32,32.9-27.97,38.15l-3.61,1.14c-2.44.77-4.96,1.3-7.5,1.59-7.9.9-15.87,1.94-23.69,3.09-18.9,2.79-43.02,7.52-67.93,13.33-22.42,5.23-45.85,11.44-69.64,18.48-21.2,6.27-56.67,16.76-102.29,34.79-28.39,11.22-93.13,44.95-95,46.12-2.62,1.65-5.41,2.98-8.3,3.97-4.24,1.46-8.64,2.18-13.02,2.18h-.01Z"/>
  <path fill="#ac7dda" d="M848.5,231.87v-49.85s0,0,0,0c0,0,0,0,0,0h0s0,0-.01,0c-36.39,4.57-67.56,11.2-92.44,17.61-39.67,10.21-68.88,21.26-85.28,27.5-33.34,12.72-56.81,24.1-62.75,26.98-13.74,6.71-31.37,15.38-53.36,29.16-12.98,8.13-24.14,15.95-33.32,22.79-3,1.14-6.02,2.3-9.06,3.48-3.04-1.18-6.05-2.34-9.06-3.48-9.18-6.84-20.34-14.66-33.32-22.79-21.98-13.79-39.62-22.46-53.36-29.16-5.94-2.88-29.41-14.26-62.75-26.98-16.39-6.23-45.61-17.29-85.28-27.5-24.89-6.41-56.06-13.04-92.44-17.61,0,0,0,0-.01,0h0s0,0,0,0h0c0,16.62,0,33.24,0,49.85-17.12-1.27-31.71-1.89-42.74-2.22v491.49c1.2.38,2.4.76,3.61,1.14,6.7.76,15.2,1.82,25.01,3.27,7.08,1.04,32.13,4.84,71.17,13.94,12.86,3,38.47,9.19,71.9,19.08,22.89,6.77,59.31,17.64,105.65,35.95,26.27,10.38,98.56,46.81,101.62,49.48v-3.44,3.44c3.06-2.67,75.35-39.1,101.62-49.48,46.34-18.31,82.76-29.18,105.65-35.95,33.43-9.89,59.05-16.08,71.9-19.08,39.04-9.1,64.08-12.9,71.17-13.94,9.81-1.45,18.3-2.5,25.01-3.27,1.2-.38,2.41-.76,3.61-1.14V229.65c-11.02.33-25.62.96-42.74,2.22Z"/>
  <g>
    <path fill="#46216b" d="M395.89,273.46c-21.2-5.85-68.26-18.22-128.76-28.06-46.48-7.56-80.08-10.24-90.24-11.01-17.6-1.32-32.58-1.97-43.84-2.3v491.49c1.2.38,2.4.76,3.61,1.14,6.7.76,15.2,1.82,25.01,3.27,7.08,1.04,32.13,4.84,71.17,13.94,12.86,3,38.47,9.19,71.9,19.08,22.89,6.77,59.31,17.64,105.65,35.95,28.73,11.35,63.29,26.37,101.62,46.04V311.98c-42.5-16.54-81.68-29.01-116.11-38.52Z"/>
    <path fill="#46216b" d="M628.11,273.46c21.2-5.85,68.26-18.22,128.76-28.06,46.48-7.56,80.08-10.24,90.24-11.01,17.6-1.32,32.58-1.97,43.84-2.3v491.49c-1.2.38-2.4.76-3.61,1.14-6.7.76-15.2,1.82-25.01,3.27-7.08,1.04-32.13,4.84-71.17,13.94-12.86,3-38.47,9.19-71.9,19.08-22.89,6.77-59.31,17.64-105.65,35.95-28.73,11.35-63.29,26.37-101.62,46.04,0-177,0-354.01,0-531.01,42.5-16.54,81.68-29.01,116.11-38.52Z"/>
  </g>
  <g>
    <path fill="#652b99" d="M512,842.98c16.97-14.82,39.85-33.53,68.23-53.38,52.96-37.02,97.27-58.49,113.35-66.03,23.72-11.12,52.23-24.31,92.44-35.22,24.91-6.76,46.37-10.48,62.18-12.66,0-164.9,0-329.79,0-494.69h0s0,0,0,0h0s0,0-.01,0c-36.39,4.57-67.56,11.2-92.44,17.61-39.67,10.21-68.88,21.26-85.28,27.5-33.34,12.72-56.81,24.1-62.75,26.98-13.74,6.71-31.37,15.38-53.36,29.16-17.61,11.03-31.87,21.49-42.38,29.71"/>
    <path fill="#652b99" d="M512,842.98c-16.97-14.82-39.85-33.53-68.23-53.38-52.96-37.02-97.27-58.49-113.35-66.03-23.72-11.12-52.23-24.31-92.44-35.22-24.91-6.76-46.37-10.48-62.18-12.66,0-164.9,0-329.79,0-494.69h0s0,0,0,0h0s0,0,.01,0c36.39,4.57,67.56,11.2,92.44,17.61,39.67,10.21,68.88,21.26,85.28,27.5,33.34,12.72,56.81,24.1,62.75,26.98,13.74,6.71,31.37,15.38,53.36,29.16,17.61,11.03,31.87,21.49,42.38,29.71"/>
  </g>
  <g>
    <path fill="#58d6d8" d="M638.02,538.11c2.29-2.3,4.59-5.17,6.33-8.03,9.75-12.64,17.21-25.26,22.94-37.9,5.19-12.64,8.63-24.11,8.63-35.03,0-10.33-3.44-19.52-9.18-27.56-5.18-7.45-12.64-12.64-21.24-16.08-8.63-2.87-18.95-4.59-29.87-4.59-12.07,0-25.27,1.72-38.48,5.16-.58-2.3-1.73-4.59-2.29-6.31-8.03-17.23-16.66-31-27.56-40.77-4.58-5.16-10.92-8.61-16.66-11.48-6.31-2.89-12.07-4.61-18.95-4.61-6.31,0-12.62,1.72-18.95,4.61-10.32,4.59-19.5,13.19-28.13,24.11-6.31,9.75-12.62,20.67-17.8,33.29-13.77-3.44-26.98-5.16-38.45-5.16s-20.7,1.72-29.3,4.59c-8.6,3.44-16.08,8.62-21.24,15.51-6.31,7.46-8.61,17.8-8.61,28.13,0,10.92,2.29,22.39,8.03,35.03,6.31,14.36,16.08,29.85,28.12,45.93-1.72,2.29-4.01,5.16-5.73,7.46-10.32,13.21-17.8,26.42-23.54,38.47-5.16,12.07-8.03,24.11-8.03,35.03,0,9.75,2.3,20.1,8.03,27.56,5.74,7.46,13.22,12.07,22.39,15.51,8.63,3.44,18.38,4.59,29.28,4.59,12.07,0,24.69-1.14,38.47-4.59,1.15,1.72,2.3,4.01,2.87,6.31,7.48,16.66,16.65,30.44,26.98,40.77,5.18,4.59,10.92,8.6,16.66,11.49,6.33,2.87,12.64,4.59,18.95,4.59,6.88,0,12.64-1.72,18.95-4.59,10.92-4.61,20.1-13.79,28.13-24.71,6.9-9.18,12.64-20.08,17.8-33.29,13.79,3.44,26.98,5.16,39.05,5.16,10.92,0,20.67-1.15,29.27-4.01,8.62-4.02,15.5-8.6,21.25-16.08,5.75-7.45,8.62-17.23,8.62-28.13s-2.87-22.39-8.03-35.03c-6.34-14.35-16.08-29.85-28.72-45.36ZM615.63,422.71c9.77,0,18.38,1.15,25.26,4.02,6.9,2.29,11.49,5.74,14.93,10.9,4.01,5.18,5.73,11.49,5.73,19.52,0,8.62-1.72,18.38-6.88,29.29-5.16,13.2-14.37,26.98-25.84,40.77l-1.14-1.14c-9.2-10.35-19.53-20.67-31.59-31.02-2.3-25.26-7.46-48.23-14.35-68.32,12.62-2.87,24.09-4.01,33.87-4.01ZM597.83,514.57c8.03,8.03,16.09,15.51,22.39,23.54l-2.29,2.29c-6.31,6.9-12.62,13.21-20.1,20.1.57-7.46.57-15.51.57-22.97,0-8.03,0-14.94-.57-22.97ZM584.62,537.53c0,12.07,0,24.12-1.15,36.18-9.19,6.88-18.36,14.34-28.7,21.24-14.34,9.76-29.28,18.95-43.06,26.41-14.36-7.46-29.28-16.66-43.06-26.41-10.32-7.48-19.52-14.36-28.13-22.39-1.15-10.92-1.72-22.96-1.72-35.03s.57-24.68,1.72-35.6c9.18-8.03,18.37-14.92,28.13-22.4,14.93-9.75,29.29-18.36,43.64-25.83,14.36,7.48,28.7,16.66,43.06,26.98,9.77,6.33,19.53,13.79,28.13,21.25,1.15,11.49,1.15,23.56,1.15,35.6ZM574.86,449.69c2.29,10.35,4.59,21.25,5.75,32.74-5.75-4.61-10.92-9.2-17.25-13.21-12.05-8.61-24.09-16.08-36.16-22.96,7.46-3.45,14.37-6.31,21.25-8.63,6.88-2.87,13.77-5.16,20.09-7.46,1.72,6.31,4.01,12.64,6.31,19.53ZM461.76,413.51c6.88-16.06,14.93-28.13,23.54-36.73,4.01-4.03,9.2-6.91,13.2-9.2,4.6-2.3,9.19-2.87,13.21-2.87,4.59,0,9.2.58,13.21,2.87,8.03,3.44,15.51,10.34,22.39,20.1,6.31,8.62,11.48,18.38,16.65,29.87-6.9,2.3-13.79,4.02-20.67,6.88-10.34,4.02-20.67,8.03-30.44,13.77-11.47-5.73-21.82-10.32-32.15-14.34-6.9-2.87-13.79-5.16-20.1-7.48,0-.57.57-1.72,1.15-2.87ZM455.44,429.59c6.31,1.72,13.19,4.02,20.65,6.88,6.91,2.89,13.79,6.33,21.25,9.78-12.05,6.31-24.09,14.36-36.16,22.39-6.33,4.59-12.64,9.17-18.95,13.79,3.44-19.52,8.04-37.33,13.22-52.84ZM369.32,485.87c-4.61-11.49-6.91-21.24-6.91-29.87,0-8.03,1.73-14.34,5.75-20.1,4.02-4.59,9.18-8.03,15.49-10.32,6.91-2.87,14.94-4.02,24.71-4.02s21.24,1.15,33.86,4.59c-2.29,6.31-4.59,13.21-6.31,20.67-3.46,14.36-6.31,30.99-8.62,47.65-12.04,10.34-22.96,21.24-32.71,32.16-1.14-1.72-2.29-4.04-4.01-5.76-9.2-12.05-16.08-24.11-21.25-35.01ZM425.51,514.57v45.36c-7.86-7.46-14.88-15.51-22.36-22.97l2.28-2.3c6.33-6.88,13.79-13.79,20.08-20.1ZM407.77,652.36c-9.17,0-18.36-1.72-24.68-4.02-6.89-2.29-12.05-6.31-15.51-10.9-4.02-5.17-5.74-11.49-5.74-19.53,0-8.62,2.3-18.95,7.48-29.87,5.16-12.62,13.77-26.4,25.26-40.17l1.15.57c9.17,10.32,20.09,21.24,31.56,31.57,2.87,24.69,7.46,47.65,14.37,67.75-12.05,2.86-23.55,4.59-33.89,4.59ZM449.11,624.81c-2.87-9.75-4.59-21.24-6.89-32.14,6.31,4.01,12.07,8.6,18.38,13.19,12.04,8.05,24.12,16.08,36.18,22.97-7.48,2.89-14.36,5.76-21.24,9.2-6.9,2.29-13.79,4.59-20.7,6.88-2.29-6.31-4.01-13.19-5.73-20.1ZM562.22,661.56c-7.46,15.51-15.49,28.13-23.54,36.18-5.16,4.02-9.17,6.88-13.77,9.18-4.01,2.29-8.62,3.44-13.21,3.44-4.02,0-8.61-1.15-13.21-3.44-7.46-2.87-15.49-10.32-22.4-20.1-5.74-8.03-11.47-17.8-16.06-29.28,6.31-2.3,13.77-4.61,20.67-6.91,9.75-4.01,20.09-8.61,31-13.77,10.34,5.16,20.67,9.75,31.02,13.77,7.45,3.47,13.76,5.18,20.65,7.48,0,1.15-.56,2.87-1.15,3.44ZM568.55,645.48c-6.88-2.3-13.79-4.59-20.67-6.88-6.91-2.87-14.37-6.31-21.25-9.77,12.04-6.88,24.11-13.77,36.18-22.39,5.74-4.59,12.05-9.18,17.8-13.76-2.88,18.94-6.9,37.3-12.07,52.81ZM655.24,639.17c-3.44,4.01-8.61,7.45-15.5,10.89-6.31,1.72-14.93,3.46-24.11,3.46-9.78,0-21.82-1.74-33.87-4.61,1.7-6.31,4.02-13.19,5.74-20.1,4.01-14.92,6.88-31.57,8.61-48.8,12.06-10.33,22.97-20.67,32.73-31.57,1.14,2.3,2.87,4.02,4.02,5.74,9.75,12.05,16.66,23.54,21.24,35.03,4.59,10.9,6.89,21.24,6.89,29.27,0,8.03-1.73,14.94-5.75,20.68Z"/>
    <path fill="#a362d6" d="M511.7,503.67c-18.37,0-33.87,14.92-33.87,33.87s15.5,34.46,33.87,34.46,33.88-16.08,33.88-34.46-14.94-33.87-33.88-33.87Z"/>
    <path fill="#a362d6" d="M609.02,396.5c-10.69,0-19.7,8.68-19.7,19.7s9.01,20.04,19.7,20.04,19.71-9.35,19.71-20.04-8.69-19.7-19.71-19.7Z"/>
    <path fill="#a362d6" d="M374.24,486.95c-10.69,0-19.7,8.68-19.7,19.7s9.01,20.04,19.7,20.04,19.71-9.35,19.71-20.04-8.69-19.7-19.71-19.7Z"/>
    <path fill="#a362d6" d="M557.08,666.08c-10.69,0-19.7,8.68-19.7,19.7s9.01,20.04,19.7,20.04,19.71-9.35,19.71-20.04-8.69-19.7-19.71-19.7Z"/>
  </g>
</svg>