<?xml version="1.0" encoding="UTF-8"?>
<svg id="Canvas_pequeño" data-name="Canvas pequeño" xmlns="http://www.w3.org/2000/svg" viewBox="0 0 1200 556.04">
  
  <g>
    <path fill="#8b5cf6" d="M1130.98,172.82l-127.37,250.12c-3.81,8.21-8.23,15.88-13.15,22.79-5.42,7.59-11.66,14.31-18.55,20-7.59,6.25-16.19,11.06-25.61,14.33-9.29,3.23-19.56,4.87-30.52,4.87-5.66,0-11.34-.52-16.87-1.55-4.32-.8-8.69-1.72-13-2.73l-22.21-5.22,6.63-65.69h-70.51c-7.81,2.4-16.08,3.61-24.73,3.61-.93,0-1.86-.01-2.79-.04-17.57-.48-32.7-5.15-44.93-13.88-2.85-2.04-5.54-4.23-8.08-6.58l-2.92,16.89h-327.61c-8.29,2.39-17.22,3.6-26.69,3.6-.7,0-1.41-.01-2.13-.03-14.23-.3-26.74-3.26-37.24-8.79-2.13-1.11-82.31,58.41-82.31,58.41l-51.49-49.8c-1.25.03-2.5.05-3.76.05-1.03,0-2.06-.01-3.1-.03-21.41-.43-40.21-5.31-55.88-14.5-15.62-9.16-28.19-21.59-37.36-36.96-8.58-14.34-14.42-30.53-17.35-48.11-2.77-16.73-3.18-34.06-1.21-51.54l1.42-11.61.04-.26c2.6-18.18,7.64-35.95,14.98-52.83,7.48-17.24,17.41-32.9,29.51-46.54,12.64-14.24,27.83-25.54,45.16-33.58,16.82-7.8,35.61-11.76,55.87-11.76,1,0,2.01.01,3.02.03,21.31.31,40.08,5.13,55.78,14.34,15.56,9.12,28.13,21.48,37.37,36.72,3.14,5.19,5.91,10.62,8.32,16.27h165.81c-.54-2.49-.84-5.07-.84-7.72,0-4.13.68-8.31,2.03-12.47-.58-2.31-.89-4.72-.89-7.2v-.37c-.62-2.83-.94-5.7-.94-8.59,0-8.03,2.48-15.33,7.18-21.16,3.69-4.69,8.66-8.37,14.43-10.69l.72-.28.72-.24c2.24-.75,4.55-1.3,6.9-1.66,3.27-3.22,6.82-5.67,10.74-7.43,4.56-2.06,9.28-3.11,14.03-3.11s9.51,1.04,14.18,3.18l.41.18.4.2c2.06,1.04,4.85,2.58,7.68,5,3.95.75,7.67,2.29,10.95,4.49,6.15,2.53,11.34,6.62,15.03,11.87,4.18,5.89,6.38,12.76,6.38,19.86,0,5.85-1.46,10.81-2.82,14.4,1.76,4.83,2.62,9.46,2.62,14.12,0,2.61-.3,5.16-.83,7.62h159.59l-.99,5.82c12.19-6.27,26.14-9.46,41.52-9.46,1.27,0,2.55.02,3.85.06h.17c7.87.33,15.22,1.61,22,3.85l13.54-77.85h105.25l-13.49,77.58h64.86l4.3,39.33,18.12-39.33h116.66Z"/>
    <path fill="#652b99" d="M1117.93,180.82l-121.52,238.62c-3.61,7.82-7.81,15.1-12.47,21.65-5.01,7.01-10.77,13.22-17.12,18.47-6.84,5.63-14.62,9.98-23.15,12.95-8.45,2.93-17.83,4.42-27.89,4.42-5.18,0-10.36-.48-15.41-1.41-4.18-.78-8.43-1.67-12.63-2.66l-15.37-3.61,6.87-68.11-.11.6h-80.55c-7.39,2.4-15.24,3.61-23.49,3.61-.84,0-1.7-.01-2.56-.04-15.96-.43-29.6-4.6-40.51-12.39-6.97-4.98-12.91-11.02-17.74-18.02l-4.64,26.84h-322.04c-7.87,2.39-16.4,3.6-25.52,3.6-.66,0-1.32-.01-1.99-.02-12.95-.28-24.26-2.93-33.67-7.88-9.65-5.05-17.52-12.16-23.37-21.13-5.48-8.41-9.19-18.04-11.03-28.64-.01-.06-.01-.12-.02-.18-3.62,5.18-7.5,10.14-11.67,14.82-2.45,2.74-5,5.37-7.65,7.89l33.77,32.11-65.45,50.09-48.99-47.39c-2.27.11-4.55.17-6.85.17-.98,0-1.97-.01-2.97-.03-20.02-.4-37.51-4.91-51.99-13.4-14.44-8.47-26.06-19.96-34.53-34.16-8.07-13.49-13.56-28.74-16.32-45.32-2.66-16-3.04-32.59-1.16-49.33l1.41-11.46.02-.18c2.5-17.47,7.34-34.55,14.39-50.77,7.15-16.46,16.63-31.41,28.17-44.42,11.9-13.41,26.21-24.05,42.54-31.64,15.75-7.3,33.41-11.01,52.5-11.01.96,0,1.92.01,2.88.03,19.92.28,37.37,4.74,51.88,13.24,14.39,8.45,26.02,19.87,34.57,33.97,3.83,6.33,7.08,13.05,9.74,20.12h183.46c-3.32-4.36-5.07-9.79-5.07-15.72,0-4.03.83-8.15,2.45-12.26-.84-2.31-1.31-4.81-1.31-7.41,0-.4,0-.79.03-1.18-.64-2.56-.97-5.17-.97-7.78,0-6.19,1.88-11.77,5.44-16.18,2.82-3.6,6.66-6.44,11.14-8.24l.5-.2.51-.17c2.62-.87,5.35-1.41,8.16-1.63,3.11-3.51,6.47-6.06,10.23-7.74,3.52-1.6,7.13-2.41,10.74-2.41s7.25.8,10.85,2.45l.28.13.27.14c2.18,1.09,4.95,2.66,7.55,5.31.04.04.08.07.11.11,3.95.34,7.64,1.75,10.74,4l.54.21c4.85,1.94,8.92,5.12,11.78,9.18,3.21,4.54,4.91,9.81,4.91,15.25s-1.64,10.02-2.87,13.02l-.13.31s-.36.78-.47,1.03c.11.23.42.93.42.93l.09.23c1.86,4.54,2.76,8.79,2.76,13,0,5.82-1.75,11.21-5.03,15.62h162.31l-2.46,14.47c3.69-2.95,7.61-5.62,11.74-7.98,11.7-6.72,25.41-10.13,40.73-10.13,1.18,0,2.38.02,3.58.06h.12c10.64.43,20.18,2.81,28.49,7.09l14.1-81.09h89.01l-13.49,77.58h67.2l6.66,60.89,28.05-60.89h98.49Z"/>
  </g>
  <g>
    <g>
      <path fill="#58d6d8" d="M563.93,150.99c.4-.41.81-.91,1.12-1.42,1.72-2.23,3.04-4.47,4.06-6.7.92-2.23,1.53-4.26,1.53-6.19,0-1.83-.61-3.45-1.62-4.87-.92-1.32-2.23-2.23-3.75-2.84-1.53-.51-3.35-.81-5.28-.81-2.13,0-4.47.3-6.8.91-.1-.41-.3-.81-.41-1.12-1.42-3.05-2.94-5.48-4.87-7.21-.81-.91-1.93-1.52-2.94-2.03-1.11-.51-2.13-.82-3.35-.82-1.12,0-2.23.3-3.35.82-1.82.81-3.45,2.33-4.97,4.26-1.11,1.72-2.23,3.65-3.15,5.88-2.43-.61-4.77-.91-6.8-.91s-3.66.3-5.18.81c-1.52.61-2.84,1.52-3.75,2.74-1.12,1.32-1.52,3.15-1.52,4.97,0,1.93.41,3.96,1.42,6.19,1.11,2.54,2.84,5.28,4.97,8.12-.3.41-.71.91-1.01,1.32-1.82,2.34-3.15,4.67-4.16,6.8-.91,2.13-1.42,4.26-1.42,6.19,0,1.72.41,3.55,1.42,4.87,1.01,1.32,2.34,2.13,3.96,2.74,1.53.61,3.25.81,5.18.81,2.13,0,4.36-.2,6.8-.81.2.3.41.71.51,1.12,1.32,2.94,2.94,5.38,4.77,7.21.92.81,1.93,1.52,2.94,2.03,1.12.51,2.23.81,3.35.81,1.22,0,2.23-.3,3.35-.81,1.93-.81,3.55-2.44,4.97-4.37,1.22-1.62,2.23-3.55,3.15-5.88,2.44.61,4.77.91,6.9.91,1.93,0,3.65-.2,5.17-.71,1.52-.71,2.74-1.52,3.76-2.84,1.02-1.32,1.52-3.05,1.52-4.97s-.51-3.96-1.42-6.19c-1.12-2.54-2.84-5.28-5.08-8.02ZM559.98,130.59c1.73,0,3.25.2,4.47.71,1.22.41,2.03,1.01,2.64,1.93.71.92,1.01,2.03,1.01,3.45,0,1.52-.3,3.25-1.22,5.18-.91,2.33-2.54,4.77-4.57,7.21l-.2-.2c-1.63-1.83-3.45-3.65-5.58-5.48-.41-4.47-1.32-8.52-2.54-12.08,2.23-.51,4.26-.71,5.99-.71ZM556.83,146.82c1.42,1.42,2.84,2.74,3.96,4.16l-.41.41c-1.12,1.22-2.23,2.34-3.55,3.55.1-1.32.1-2.74.1-4.06,0-1.42,0-2.64-.1-4.06ZM554.49,150.88c0,2.13,0,4.26-.2,6.4-1.62,1.22-3.25,2.53-5.07,3.76-2.54,1.72-5.18,3.35-7.61,4.67-2.54-1.32-5.18-2.94-7.61-4.67-1.82-1.32-3.45-2.54-4.97-3.96-.2-1.93-.3-4.06-.3-6.19s.1-4.36.3-6.29c1.62-1.42,3.25-2.64,4.97-3.96,2.64-1.72,5.18-3.24,7.71-4.57,2.54,1.32,5.07,2.94,7.61,4.77,1.73,1.12,3.45,2.44,4.97,3.76.2,2.03.2,4.16.2,6.29ZM552.77,135.36c.41,1.83.81,3.76,1.02,5.79-1.02-.82-1.93-1.63-3.05-2.34-2.13-1.52-4.26-2.84-6.39-4.06,1.32-.61,2.54-1.12,3.76-1.52,1.22-.51,2.43-.91,3.55-1.32.3,1.12.71,2.23,1.12,3.45ZM532.78,128.96c1.22-2.84,2.64-4.97,4.16-6.49.71-.71,1.63-1.22,2.33-1.63.81-.41,1.62-.51,2.34-.51.81,0,1.63.1,2.34.51,1.42.61,2.74,1.83,3.96,3.55,1.12,1.52,2.03,3.25,2.94,5.28-1.22.41-2.44.71-3.65,1.22-1.83.71-3.65,1.42-5.38,2.43-2.03-1.01-3.86-1.82-5.68-2.53-1.22-.51-2.44-.91-3.55-1.32,0-.1.1-.3.2-.51ZM531.66,131.8c1.12.3,2.33.71,3.65,1.22,1.22.51,2.44,1.12,3.76,1.73-2.13,1.12-4.26,2.54-6.39,3.96-1.12.81-2.23,1.62-3.35,2.44.61-3.45,1.42-6.6,2.34-9.34ZM516.44,141.75c-.82-2.03-1.22-3.75-1.22-5.28,0-1.42.3-2.54,1.02-3.55.71-.81,1.62-1.42,2.74-1.82,1.22-.51,2.64-.71,4.37-.71s3.75.2,5.99.81c-.41,1.12-.81,2.34-1.12,3.65-.61,2.54-1.11,5.48-1.52,8.42-2.13,1.83-4.06,3.75-5.78,5.68-.2-.3-.41-.71-.71-1.02-1.63-2.13-2.84-4.26-3.76-6.19ZM526.37,146.82v8.02c-1.39-1.32-2.63-2.74-3.95-4.06l.4-.41c1.12-1.22,2.44-2.44,3.55-3.55ZM523.23,171.18c-1.62,0-3.24-.3-4.36-.71-1.22-.41-2.13-1.12-2.74-1.93-.71-.91-1.01-2.03-1.01-3.45,0-1.52.41-3.35,1.32-5.28.91-2.23,2.43-4.67,4.47-7.1l.2.1c1.62,1.82,3.55,3.76,5.58,5.58.51,4.36,1.32,8.42,2.54,11.98-2.13.51-4.16.81-5.99.81ZM530.54,166.31c-.51-1.72-.81-3.76-1.22-5.68,1.12.71,2.13,1.52,3.25,2.33,2.13,1.42,4.26,2.84,6.39,4.06-1.32.51-2.54,1.02-3.75,1.63-1.22.41-2.44.81-3.66,1.22-.41-1.11-.71-2.33-1.01-3.55ZM550.54,172.81c-1.32,2.74-2.74,4.97-4.16,6.4-.91.71-1.62,1.22-2.43,1.62-.71.41-1.52.61-2.34.61-.71,0-1.52-.2-2.34-.61-1.32-.51-2.74-1.82-3.96-3.55-1.01-1.42-2.03-3.15-2.84-5.17,1.11-.41,2.43-.81,3.65-1.22,1.72-.71,3.55-1.52,5.48-2.43,1.83.91,3.65,1.72,5.48,2.43,1.32.61,2.43.92,3.65,1.32,0,.2-.1.51-.2.61ZM551.65,169.96c-1.22-.41-2.44-.81-3.65-1.22-1.22-.51-2.54-1.12-3.76-1.73,2.13-1.22,4.26-2.43,6.39-3.96,1.01-.81,2.13-1.62,3.15-2.43-.51,3.35-1.22,6.59-2.13,9.34ZM566.98,168.85c-.61.71-1.52,1.32-2.74,1.93-1.12.3-2.64.61-4.26.61-1.73,0-3.86-.31-5.99-.82.3-1.12.71-2.33,1.01-3.55.71-2.64,1.22-5.58,1.52-8.63,2.13-1.83,4.06-3.65,5.79-5.58.2.41.51.71.71,1.01,1.72,2.13,2.94,4.16,3.75,6.19.81,1.93,1.22,3.76,1.22,5.17,0,1.42-.31,2.64-1.02,3.65Z"/>
      <path fill="#a362d6" d="M541.61,144.9c-3.25,0-5.99,2.64-5.99,5.99s2.74,6.09,5.99,6.09,5.99-2.84,5.99-6.09-2.64-5.99-5.99-5.99Z"/>
      <path fill="#a362d6" d="M558.81,125.95c-1.89,0-3.48,1.53-3.48,3.48s1.59,3.54,3.48,3.54,3.48-1.65,3.48-3.54-1.54-3.48-3.48-3.48Z"/>
      <path fill="#a362d6" d="M517.31,141.94c-1.89,0-3.48,1.53-3.48,3.48s1.59,3.54,3.48,3.54,3.48-1.65,3.48-3.54-1.54-3.48-3.48-3.48Z"/>
      <path fill="#a362d6" d="M549.63,173.6c-1.89,0-3.48,1.53-3.48,3.48s1.59,3.54,3.48,3.54,3.48-1.65,3.48-3.54-1.54-3.48-3.48-3.48Z"/>
    </g>
    <g>
      <path fill="#fff" d="M291.16,170.03c-7.01-11.56-16.44-20.82-28.29-27.77-11.85-6.95-26.2-10.54-43.06-10.77-17.55-.34-33.39,2.76-47.51,9.31-14.13,6.56-26.35,15.64-36.66,27.26-10.31,11.62-18.69,24.84-25.12,39.65-6.44,14.81-10.8,30.19-13.08,46.14l-1.36,11.11c-1.71,15.16-1.37,29.94,1.02,44.35,2.4,14.41,7.07,27.43,14.02,39.05,6.94,11.62,16.34,20.91,28.19,27.86,11.85,6.95,26.26,10.59,43.24,10.93,5.55.11,10.93-.13,16.14-.72l43.68,42.25,36.4-27.85-33.39-31.74c7.91-5.3,15.08-11.55,21.51-18.76,10.31-11.57,18.66-24.81,25.04-39.74,6.38-14.92,10.65-30.47,12.81-46.65l1.37-10.94c1.82-14.93,1.54-29.59-.85-44.01-2.4-14.41-7.1-27.4-14.1-38.96ZM251.08,253.34l-1.54,11.62c-1.14,8.66-3.13,17.63-5.98,26.92-2.85,9.29-6.78,17.92-11.79,25.89-5.01,7.98-11.31,14.38-18.88,19.23-7.58,4.84-16.67,7.03-27.26,6.57-9.91-.34-17.49-3.21-22.73-8.63-5.24-5.41-8.8-12.21-10.68-20.42-1.88-8.2-2.74-16.72-2.57-25.55.17-8.82.71-16.77,1.63-23.84l1.36-11.62c1.26-8.66,3.31-17.66,6.16-27,2.84-9.34,6.75-17.97,11.7-25.89,4.96-7.92,11.2-14.24,18.72-18.97s16.69-6.86,27.51-6.41c9.8.46,17.29,3.36,22.48,8.72,5.18,5.35,8.74,12.07,10.68,20.16,1.93,8.09,2.84,16.52,2.73,25.29-.11,8.78-.63,16.75-1.54,23.93Z"/>
      <path fill="#fff" d="M435.45,198.82l-22.57,129.83c-2.9,4.55-6.51,8.35-10.84,11.42-5.87,4.16-13.41,6.01-22.64,5.56-4.1-.12-7.43-.89-10-2.31-2.56-1.42-4.53-3.33-5.89-5.73-1.37-2.39-2.25-5.18-2.65-8.37-.4-3.19-.43-6.55-.09-10.08l20.34-120.32h-52.13l-19.99,119.63c-.91,9.23-.66,17.95.77,26.15,1.42,8.2,4.21,15.5,8.37,21.88s9.71,11.39,16.67,15.03c6.94,3.65,15.49,5.59,25.63,5.81,12.3.23,22.99-2.1,32.04-7,5.95-3.22,11.27-7.18,15.93-11.88l-1.49,15.3h48.71l32.13-184.92h-52.3Z"/>
      <polygon fill="#fff" points="508.06 198.82 475.93 383.73 528.23 383.73 560.19 198.82 508.06 198.82"/>
      <polygon fill="#fff" points="718.92 230.95 724.39 198.82 578.61 198.82 571.43 240.35 649.31 240.35 549.22 350.75 543.58 383.74 694.48 383.74 701.66 342.21 618.24 342.21 718.92 230.95"/>
      <path fill="#fff" d="M857.15,121.24l-17.26,99.23c-3.53-5.87-7.82-10.95-12.9-15.24-7.35-6.21-16.78-9.54-28.29-10-13.44-.45-25.03,2.11-34.77,7.7-9.75,5.58-17.92,13.1-24.53,22.55-6.61,9.46-11.82,19.94-15.64,31.45-3.82,11.51-6.41,22.9-7.77,34.18l-.34,3.76c-1.03,10.25-.94,20.71.25,31.36,1.2,10.65,3.93,20.57,8.2,29.73,4.28,9.18,10.4,16.61,18.38,22.31,7.97,5.69,18.17,8.71,30.59,9.05,11.73.35,22.21-2.33,31.44-8.03,4.78-2.95,9.22-6.38,13.33-10.32l-.68,14.77h46.83l45.63-262.5h-52.47ZM833.74,283.42l-2.4,18.11c-1.02,7.41-3.22,14.56-6.58,21.45-1.14,2.35-2.43,4.55-3.86,6.59-2.76,3.98-6.06,7.39-9.89,10.24-5.81,4.34-13.05,6.39-21.71,6.16-6.26-.34-11.02-2.34-14.27-5.98-3.24-3.65-5.41-8.15-6.49-13.51-1.09-5.35-1.57-10.87-1.45-16.57.11-5.7.39-10.82.85-15.38l.34-3.59c.8-5.7,1.99-11.71,3.59-18.03,1.6-6.32,3.9-12.28,6.92-17.86,3.02-5.58,6.98-10.08,11.88-13.5,4.9-3.42,10.88-5.01,17.94-4.79,6.38.12,11.37,1.71,14.96,4.79,3.59,3.07,6.18,6.92,7.77,11.53.72,2.07,1.3,4.22,1.75,6.44.56,2.73.92,5.56,1.07,8.52.29,5.35.15,10.48-.42,15.38Z"/>
      <path fill="#fff" d="M1030.97,198.82l-50.41,109.41-11.97-109.41h-54.17l30.04,183.74-8.51,15.7c-2.39,4.56-5.19,8.21-8.37,10.94-3.19,2.73-6.84,4.7-10.94,5.9-4.1,1.19-8.78,1.79-14.01,1.79-1.03,0-2.14-.03-3.34-.09-1.19-.05-2.36-.2-3.5-.42l-3.93,38.96c3.87.91,7.8,1.74,11.79,2.48s8.03,1.11,12.13,1.11c8.09,0,15.41-1.14,21.97-3.42,6.55-2.28,12.41-5.55,17.6-9.82,5.18-4.28,9.82-9.29,13.93-15.04,4.1-5.76,7.74-12.11,10.93-19.06l108.35-212.77h-57.59Z"/>
    </g>
  </g>
</svg>